<svg width="32" height="32" viewBox="0 0 32 32" fill="none" xmlns="http://www.w3.org/2000/svg">
  <defs>
    <linearGradient id="goldGradient" x1="0%" y1="0%" x2="100%" y2="100%">
      <stop offset="0%" style="stop-color:#fcd34d;stop-opacity:1" />
      <stop offset="50%" style="stop-color:#fbbf24;stop-opacity:1" />
      <stop offset="100%" style="stop-color:#f59e0b;stop-opacity:1" />
    </linearGradient>
    <radialGradient id="radialGradient" cx="50%" cy="50%" r="50%">
      <stop offset="0%" style="stop-color:#fcd34d;stop-opacity:1" />
      <stop offset="50%" style="stop-color:#fbbf24;stop-opacity:1" />
      <stop offset="100%" style="stop-color:#f59e0b;stop-opacity:1" />
    </radialGradient>
  </defs>

  <!-- 8-pointed star shape -->
  <!-- Outer points (8 points) -->
  <path d="M 16,2 L 18.5,10 L 26,7 L 22,14 L 30,16 L 22,18 L 26,25 L 18.5,22 L 16,30 L 13.5,22 L 6,25 L 10,18 L 2,16 L 10,14 L 6,7 L 13.5,10 Z"
        fill="url(#radialGradient)"/>

  <!-- Inner octagon for depth -->
  <path d="M 16,8 L 20.5,10.5 L 23,14 L 23.5,18 L 21,21.5 L 16.5,23.5 L 11.5,21.5 L 9,18 L 8.5,14 L 11,10.5 Z"
        fill="url(#goldGradient)" opacity="0.7"/>

  <!-- Center circle -->
  <circle cx="16" cy="16" r="4" fill="#ffffff" opacity="0.3"/>

  <!-- Center dot -->
  <circle cx="16" cy="16" r="1.5" fill="#ffffff" opacity="0.9"/>
</svg>
